<?xml version="1.0" encoding="UTF-8" standalone="no"?>
<!-- Created with Inkscape (http://www.inkscape.org/) -->

<svg
   xmlns:dc="http://purl.org/dc/elements/1.1/"
   xmlns:cc="http://creativecommons.org/ns#"
   xmlns:rdf="http://www.w3.org/1999/02/22-rdf-syntax-ns#"
   xmlns:svg="http://www.w3.org/2000/svg"
   xmlns="http://www.w3.org/2000/svg"
   xmlns:xlink="http://www.w3.org/1999/xlink"
   xmlns:sodipodi="http://sodipodi.sourceforge.net/DTD/sodipodi-0.dtd"
   xmlns:inkscape="http://www.inkscape.org/namespaces/inkscape"
   width="256"
   height="256"
   viewBox="0 0 67.733333 67.733333"
   version="1.1"
   id="svg8"
   sodipodi:docname="icon.svg"
   inkscape:version="0.92.3 (2405546, 2018-03-11)"
   inkscape:export-filename="C:\git\keebiometrics\assets\icon.png"
   inkscape:export-xdpi="96"
   inkscape:export-ydpi="96">
  <defs
     id="defs2">
    <linearGradient
       inkscape:collect="always"
       id="linearGradient6152">
      <stop
         style="stop-color:#52c7b8;stop-opacity:1;"
         offset="0"
         id="stop6148" />
      <stop
         style="stop-color:#009688;stop-opacity:1"
         offset="1"
         id="stop6150" />
    </linearGradient>
    <linearGradient
       inkscape:collect="always"
       xlink:href="#linearGradient6152"
       id="linearGradient6154"
       x1="0"
       y1="67.73333"
       x2="51.858334"
       y2="15.875"
       gradientUnits="userSpaceOnUse" />
  </defs>
  <sodipodi:namedview
     id="base"
     pagecolor="#ffffff"
     bordercolor="#666666"
     borderopacity="1.0"
     inkscape:pageopacity="0"
     inkscape:pageshadow="2"
     inkscape:zoom="1.4142136"
     inkscape:cx="84.560641"
     inkscape:cy="127.1845"
     inkscape:document-units="px"
     inkscape:current-layer="layer5"
     showgrid="false"
     showguides="true"
     inkscape:guide-bbox="true"
     units="px"
     inkscape:snap-bbox="false"
     inkscape:snap-to-guides="true"
     inkscape:snap-page="true"
     inkscape:snap-grids="true"
     inkscape:window-width="1920"
     inkscape:window-height="1017"
     inkscape:window-x="-8"
     inkscape:window-y="-8"
     inkscape:window-maximized="1"
     inkscape:pagecheckerboard="true">
    <inkscape:grid
       type="xygrid"
       id="grid4573" />
    <sodipodi:guide
       position="0,0"
       orientation="0,1"
       id="guide4577"
       inkscape:locked="true"
       inkscape:label=""
       inkscape:color="rgb(0,0,255)" />
    <sodipodi:guide
       position="0,67.733333"
       orientation="0,1"
       id="guide4581"
       inkscape:locked="true"
       inkscape:label=""
       inkscape:color="rgb(0,0,255)" />
    <sodipodi:guide
       position="0,0"
       orientation="1,0"
       id="guide4583"
       inkscape:locked="true"
       inkscape:label=""
       inkscape:color="rgb(0,0,255)" />
    <sodipodi:guide
       position="67.733333,0"
       orientation="1,0"
       id="guide4585"
       inkscape:locked="true"
       inkscape:label=""
       inkscape:color="rgb(0,0,255)" />
    <sodipodi:guide
       position="0,33.866667"
       orientation="0,1"
       id="guide4587"
       inkscape:locked="true"
       inkscape:label=""
       inkscape:color="rgb(0,0,255)" />
    <sodipodi:guide
       position="33.866667,0"
       orientation="1,0"
       id="guide4589"
       inkscape:locked="true"
       inkscape:label=""
       inkscape:color="rgb(0,0,255)" />
    <sodipodi:guide
       position="3.175,0"
       orientation="1,0"
       id="guide4596"
       inkscape:locked="false"
       inkscape:label=""
       inkscape:color="rgb(0,0,255)" />
    <sodipodi:guide
       position="0,3.175"
       orientation="0,1"
       id="guide4598"
       inkscape:locked="false"
       inkscape:label=""
       inkscape:color="rgb(0,0,255)" />
    <sodipodi:guide
       position="64.558333,0"
       orientation="1,0"
       id="guide4600"
       inkscape:locked="false"
       inkscape:label=""
       inkscape:color="rgb(0,0,255)" />
    <sodipodi:guide
       position="0,64.558333"
       orientation="0,1"
       id="guide4604"
       inkscape:locked="false"
       inkscape:label=""
       inkscape:color="rgb(0,0,255)" />
    <sodipodi:guide
       position="0,51.858333"
       orientation="0,1"
       id="guide4643"
       inkscape:locked="false"
       inkscape:label=""
       inkscape:color="rgb(0,0,255)" />
    <sodipodi:guide
       position="51.858333,0"
       orientation="1,0"
       id="guide4645"
       inkscape:locked="false"
       inkscape:label=""
       inkscape:color="rgb(0,0,255)" />
    <sodipodi:guide
       position="-16.933333,0"
       orientation="1,0"
       id="guide6158"
       inkscape:locked="false"
       inkscape:label=""
       inkscape:color="rgb(0,0,255)" />
    <sodipodi:guide
       position="84.666666,0"
       orientation="1,0"
       id="guide6162"
       inkscape:locked="false"
       inkscape:label=""
       inkscape:color="rgb(0,0,255)" />
    <sodipodi:guide
       position="0,84.666666"
       orientation="0,1"
       id="guide6164"
       inkscape:locked="false"
       inkscape:label=""
       inkscape:color="rgb(0,0,255)" />
    <sodipodi:guide
       position="0,16.933333"
       orientation="0,1"
       id="guide6342"
       inkscape:locked="false"
       inkscape:label=""
       inkscape:color="rgb(0,0,255)" />
  </sodipodi:namedview>
  <metadata
     id="metadata5">
    <rdf:RDF>
      <cc:Work
         rdf:about="">
        <dc:format>image/svg+xml</dc:format>
        <dc:type
           rdf:resource="http://purl.org/dc/dcmitype/StillImage" />
        <dc:title></dc:title>
      </cc:Work>
    </rdf:RDF>
  </metadata>
  <g
     inkscape:label="bavkground"
     inkscape:groupmode="layer"
     id="layer1"
     transform="translate(0,-229.26667)"
     style="display:inline"
     sodipodi:insensitive="true">
    <circle
       style="fill:#00675b;fill-opacity:1;stroke-width:0.26458332"
       id="path4591"
       cx="33.866665"
       cy="263.13333"
       r="33.866665" />
  </g>
  <g
     inkscape:groupmode="layer"
     id="layer2"
     inkscape:label="main"
     sodipodi:insensitive="true">
    <circle
       style="fill:url(#linearGradient6154);fill-opacity:1;fill-rule:nonzero;stroke-width:0.26458332"
       id="path4608"
       cx="33.866665"
       cy="33.866665"
       r="30.691666" />
  </g>
  <g
     inkscape:groupmode="layer"
     id="layer4"
     inkscape:label="light"
     style="display:inline"
     sodipodi:insensitive="true">
    <path
       style="display:inline;opacity:0.4;fill:#52c7b8;fill-opacity:1;stroke-width:0.99999994"
       d="M 128,0 A 127.99999,127.99999 0 0 0 2.2636719,104.47266 192,95.999999 0 0 0 128,128 192,95.999999 0 0 0 253.72266,104.39844 127.99999,127.99999 0 0 0 128,0 Z"
       transform="scale(0.26458333)"
       id="path4591-3"
       inkscape:connector-curvature="0" />
  </g>
  <g
     inkscape:groupmode="layer"
     id="layer3"
     inkscape:label="fingerprint"
     style="display:inline"
     sodipodi:insensitive="true">
    <g
       id="g4625"
       transform="matrix(2.1607639,0,0,2.1607639,7.9375,7.9374994)">
      <path
         id="path4611"
         d="M 17.81,4.47 C 17.73,4.47 17.65,4.45 17.58,4.41 15.66,3.42 14,3 12.01,3 10.03,3 8.15,3.47 6.44,4.41 6.2,4.54 5.9,4.45 5.76,4.21 5.63,3.97 5.72,3.66 5.96,3.53 7.82,2.52 9.86,2 12.01,2 c 2.13,0 3.99,0.47 6.03,1.52 0.25,0.13 0.34,0.43 0.21,0.67 -0.09,0.18 -0.26,0.28 -0.44,0.28 z M 3.5,9.72 C 3.4,9.72 3.3,9.69 3.21,9.63 2.98,9.47 2.93,9.16 3.09,8.93 4.08,7.53 5.34,6.43 6.84,5.66 9.98,4.04 14,4.03 17.15,5.65 18.65,6.42 19.91,7.51 20.9,8.9 21.06,9.12 21.01,9.44 20.78,9.6 20.55,9.76 20.24,9.71 20.08,9.48 19.18,8.22 18.04,7.23 16.69,6.54 13.82,5.07 10.15,5.07 7.29,6.55 5.93,7.25 4.79,8.25 3.89,9.51 3.81,9.65 3.66,9.72 3.5,9.72 Z M 9.75,21.79 C 9.62,21.79 9.49,21.74 9.4,21.64 8.53,20.77 8.06,20.21 7.39,19 6.7,17.77 6.34,16.27 6.34,14.66 6.34,11.69 8.88,9.27 12,9.27 c 3.12,0 5.66,2.42 5.66,5.39 0,0.28 -0.22,0.5 -0.5,0.5 -0.28,0 -0.5,-0.22 -0.5,-0.5 0,-2.42 -2.09,-4.39 -4.66,-4.39 -2.57,0 -4.66,1.97 -4.66,4.39 0,1.44 0.32,2.77 0.93,3.85 0.64,1.15 1.08,1.64 1.85,2.42 0.19,0.2 0.19,0.51 0,0.71 -0.11,0.1 -0.24,0.15 -0.37,0.15 z m 7.17,-1.85 c -1.19,0 -2.24,-0.3 -3.1,-0.89 -1.49,-1.01 -2.38,-2.65 -2.38,-4.39 0,-0.28 0.22,-0.5 0.5,-0.5 0.28,0 0.5,0.22 0.5,0.5 0,1.41 0.72,2.74 1.94,3.56 0.71,0.48 1.54,0.71 2.54,0.71 0.24,0 0.64,-0.03 1.04,-0.1 0.27,-0.05 0.53,0.13 0.58,0.41 0.05,0.27 -0.13,0.53 -0.41,0.58 -0.57,0.11 -1.07,0.12 -1.21,0.12 z M 14.91,22 c -0.04,0 -0.09,-0.01 -0.13,-0.02 -1.59,-0.44 -2.63,-1.03 -3.72,-2.1 -1.4,-1.39 -2.17,-3.24 -2.17,-5.22 0,-1.62 1.38,-2.94 3.08,-2.94 1.7,0 3.08,1.32 3.08,2.94 0,1.07 0.93,1.94 2.08,1.94 1.15,0 2.08,-0.87 2.08,-1.94 0,-3.77 -3.25,-6.83 -7.25,-6.83 -2.84,0 -5.44,1.58 -6.61,4.03 -0.39,0.81 -0.59,1.76 -0.59,2.8 0,0.78 0.07,2.01 0.67,3.61 0.1,0.26 -0.03,0.55 -0.29,0.64 C 4.88,19.01 4.59,18.87 4.5,18.62 4.01,17.31 3.77,16.01 3.77,14.66 c 0,-1.2 0.23,-2.29 0.68,-3.24 1.33,-2.79 4.28,-4.6 7.51,-4.6 4.55,0 8.25,3.51 8.25,7.83 0,1.62 -1.38,2.94 -3.08,2.94 -1.7,0 -3.08,-1.32 -3.08,-2.94 0,-1.07 -0.93,-1.94 -2.08,-1.94 -1.15,0 -2.08,0.87 -2.08,1.94 0,1.71 0.66,3.31 1.87,4.51 0.95,0.94 1.86,1.46 3.27,1.85 0.27,0.07 0.42,0.35 0.35,0.61 C 15.33,21.85 15.12,22 14.91,22 Z"
         inkscape:connector-curvature="0" />
      <path
         id="path4613"
         d="M 0,0 H 24 V 24 H 0 Z"
         inkscape:connector-curvature="0"
         style="fill:none" />
    </g>
  </g>
  <g
     inkscape:groupmode="layer"
     id="layer6"
     inkscape:label="keepass background"
     sodipodi:insensitive="true">
    <g
       id="layer101-0"
       transform="matrix(0.01354667,0,0,0.01314154,34.721798,35.490118)"
       style="fill:#101f27;stroke:none">
      <path
         style="fill:#62727b;fill-opacity:0.62745098;stroke-width:0.05909599"
         d="m 194.39453,143.23047 c -2.80395,0.0262 -5.58069,0.3179 -8.22461,1.23633 -6.44508,3.04354 -11.2191,8.61398 -15.64453,13.93359 -6.24068,9.03605 -9.88164,19.7881 -12.02539,30.36328 v 0 3.20703 c -0.002,0.01 -0.004,0.0195 -0.006,0.0293 h 0.006 v 41 h 75 v -44.23633 0 c -0.58114,-3.85929 -0.57813,-3.96875 -1.07031,-6.20117 -2.8024,-9.51223 -5.64923,-18.19711 -12.79297,-26.55273 -4.75373,-4.97607 -9.60657,-11.05235 -16.85938,-12.41602 -2.74765,-0.15004 -5.57886,-0.38948 -8.38281,-0.36328 z"
         transform="matrix(19.531245,0,0,20.133358,-2563.1242,-2700.6057)"
         id="path6344-8"
         inkscape:connector-curvature="0"
         sodipodi:nodetypes="sccccccccccccccs" />
    </g>
  </g>
  <g
     inkscape:groupmode="layer"
     id="layer5"
     inkscape:label="keepass"
     sodipodi:insensitive="true">
    <g
       id="layer101"
       transform="matrix(0.01354667,0,0,0.01314154,34.721798,35.490118)"
       style="fill:#101f27;stroke:none">
      <path
         d="m 640,1840 c 0,-26.6667 0,-53.3333 0,-80 416.6667,0 833.3333,0 1250,0 0,53.3333 0,106.6667 0,160 -416.6667,0 -833.3333,0 -1250,0 0,-26.6667 0,-53.3333 0,-80 z"
         id="path6344"
         inkscape:connector-curvature="0" />
      <path
         d="m 640,1640 c 0,-26.6667 0,-53.3333 0,-80 180,0 360,0 540,0 0,53.3333 0,106.6667 0,160 -180,0 -360,0 -540,0 0,-26.6667 0,-53.3333 0,-80 z"
         id="path6346"
         inkscape:connector-curvature="0" />
      <path
         d="m 1370,1640 c 0,-26.6667 0,-53.3333 0,-80 173.3333,0 346.6667,0 520,0 0,53.3333 0,106.6667 0,160 -173.3333,0 -346.6667,0 -520,0 0,-26.6667 0,-53.3333 0,-80 z"
         id="path6348"
         inkscape:connector-curvature="0" />
      <path
         d="m 640,1440 c 0,-26.6667 0,-53.3333 0,-80 180,0 360,0 540,0 0,53.3333 0,106.6667 0,160 -180,0 -360,0 -540,0 0,-26.6667 0,-53.3333 0,-80 z"
         id="path6350"
         inkscape:connector-curvature="0" />
      <path
         d="m 1370,1440 c 0,-26.6667 0,-53.3333 0,-80 173.3333,0 346.6667,0 520,0 0,53.3333 0,106.6667 0,160 -173.3333,0 -346.6667,0 -520,0 0,-26.6667 0,-53.3333 0,-80 z"
         id="path6352"
         inkscape:connector-curvature="0" />
      <path
         d="m 640,1240 c 0,-26.6667 0,-53.3333 0,-80 416.6667,0 833.3333,0 1250,0 0,53.3333 0,106.6667 0,160 -416.6667,0 -833.3333,0 -1250,0 0,-26.6667 0,-53.3333 0,-80 z"
         id="path6354"
         inkscape:connector-curvature="0" />
      <path
         d="M 1781.4486,1120 H 1615 c -38.6687,-168.3029 -84.6986,-346.15223 -208.9614,-473.06177 -53.629,-58.12514 -145.8069,-87.52222 -215.8874,-41.0531 -138.9284,82.52012 -188.1925,247.5745 -236.05034,391.64469 C 940.98994,1037.3826 933.42292,1078.6403 927,1120 H 739 c 2.33333,-12.3333 4.66667,-24.6667 7,-37 30.44039,-157.38477 72.96163,-318.13132 163.13571,-452.72183 62.57077,-77.5323 130.05219,-158.6926 221.17879,-203.05161 74.7643,-26.77184 157.1128,-17.10006 234.8105,-12.72656 102.5469,19.87534 171.156,108.41921 238.3686,180.94431 101.0048,121.78164 143.4866,279.78521 179.5748,430.72169 5.9473,26.8541 15.2156,72.7328 16.8433,93.9913"
         id="path6356"
         inkscape:connector-curvature="0"
         sodipodi:nodetypes="cccccccccccccc" />
    </g>
  </g>
</svg>
